<svg xmlns="http://www.w3.org/2000/svg" xmlns:xlink="http://www.w3.org/1999/xlink" width="40" height="38"><defs><path id="a" d="M1151.059 427.195l-5.901 3.043c-2.04 1.051-4.56.282-5.633-1.718a4.023 4.023 0 0 1-.419-2.595l1.127-6.446a4.043 4.043 0 0 0-1.2-3.621l-4.773-4.565a4.036 4.036 0 0 1-.076-5.786 4.2 4.2 0 0 1 2.387-1.193l6.598-.94a4.166 4.166 0 0 0 3.14-2.238l2.95-5.864c1.02-2.027 3.521-2.859 5.587-1.859a4.132 4.132 0 0 1 1.894 1.859l2.95 5.864a4.166 4.166 0 0 0 3.14 2.238l6.598.94c2.28.325 3.86 2.402 3.528 4.638a4.064 4.064 0 0 1-1.216 2.341l-4.774 4.565a4.043 4.043 0 0 0-1.2 3.621l1.127 6.446c.39 2.227-1.135 4.342-3.405 4.724a4.242 4.242 0 0 1-2.646-.411l-5.901-3.043a4.243 4.243 0 0 0-3.882 0z"/></defs><use fill="#868e9f" xlink:href="#a" opacity=".2" transform="translate(-1133 -393)"/></svg>